<?xml version="1.0" encoding="UTF-8" standalone="no"?>
<!-- Created with Inkscape (http://www.inkscape.org/) -->

<svg
   xmlns:dc="http://purl.org/dc/elements/1.1/"
   xmlns:cc="http://creativecommons.org/ns#"
   xmlns:rdf="http://www.w3.org/1999/02/22-rdf-syntax-ns#"
   xmlns:svg="http://www.w3.org/2000/svg"
   xmlns="http://www.w3.org/2000/svg"
   xmlns:sodipodi="http://sodipodi.sourceforge.net/DTD/sodipodi-0.dtd"
   xmlns:inkscape="http://www.inkscape.org/namespaces/inkscape"
   id="svg3004"
   version="1.1"
   inkscape:version="0.48.1 r9760"
   width="540"
   height="540"
   xml:space="preserve"
   sodipodi:docname="csi_logo_bw.svg"><metadata
     id="metadata3010"><rdf:RDF><cc:Work
         rdf:about=""><dc:format>image/svg+xml</dc:format><dc:type
           rdf:resource="http://purl.org/dc/dcmitype/StillImage" /><dc:title /></cc:Work></rdf:RDF></metadata><defs
     id="defs3008"><clipPath
   clipPathUnits="userSpaceOnUse"
   id="clipPath3018"><path
     d="M 0,792 612,792 612,0 0,0 0,792 z"
     id="path3020"
     inkscape:connector-curvature="0" /></clipPath>

</defs><sodipodi:namedview
     pagecolor="#ffffff"
     bordercolor="#666666"
     borderopacity="1"
     objecttolerance="10"
     gridtolerance="10"
     guidetolerance="10"
     inkscape:pageopacity="0"
     inkscape:pageshadow="2"
     inkscape:window-width="1050"
     inkscape:window-height="1609"
     id="namedview3006"
     showgrid="false"
     inkscape:zoom="0.45"
     inkscape:cx="282.03231"
     inkscape:cy="126.94627"
     inkscape:window-x="0"
     inkscape:window-y="25"
     inkscape:window-maximized="1"
     inkscape:current-layer="g3012"
     fit-margin-top="1"
     fit-margin-left="0"
     fit-margin-right="0"
     fit-margin-bottom="0" /><g
     id="g3012"
     inkscape:groupmode="layer"
     inkscape:label="csi_logo_bw"
     transform="matrix(1.25,0,0,-1.25,-112.42537,806.21586)"><g
       transform="scale(1,-1)"
       id="text3022"
       style="fill:#ffffff"><path
         d="m 170.78965,-280.80313 c -2.12077,0.75302 -4.157,1.32163 -6.10867,1.70582 -1.95173,0.3842 -3.80354,0.57629 -5.55544,0.57629 -4.62571,0 -8.32164,-1.26784 -11.08783,-3.80351 -2.7662,-2.53568 -4.14929,-5.89352 -4.14929,-10.07356 0,-2.75081 0.43798,-5.34027 1.31394,-7.76839 0.87596,-2.44345 2.16685,-4.67177 3.87267,-6.68497 2.01317,-2.3666 4.43359,-4.18768 7.26126,-5.46323 2.84302,-1.27549 5.90119,-1.91325 9.17454,-1.91328 1.78264,3e-5 3.57298,0.21518 5.37103,0.64544 1.79799,0.41496 3.62675,1.05272 5.48628,1.91328 l -1.4292,7.12295 c -1.47533,-1.12182 -2.95832,-1.94399 -4.44896,-2.46652 -1.4907,-0.52247 -3.08894,-0.78373 -4.79473,-0.78375 -3.54997,2e-5 -6.52363,1.36775 -8.92098,4.10318 -2.39738,2.73548 -3.59606,6.1548 -3.59605,10.25797 -1e-5,2.64326 0.73764,4.71791 2.21296,6.22393 1.47528,1.50605 3.51151,2.25907 6.10867,2.25906 1.55212,1e-5 3.19647,-0.27661 4.93305,-0.82986 1.75189,-0.56859 3.71128,-1.45224 5.87816,-2.65093 l -1.52141,7.63008"
         style="font-size:47.20970153999999752px;font-style:italic;font-variant:normal;font-weight:bold;font-stretch:normal;writing-mode:lr-tb;fill:#ffffff;fill-opacity:1;fill-rule:nonzero;stroke:none;font-family:Neutra Text Light;-inkscape-font-specification:NeutraText-DemiItalic"
         id="path3258"
         inkscape:connector-curvature="0" /><path
         d="m 204.91986,-291.13025 -0.27662,1.31394 -19.31725,0 c -1e-5,0.0922 -0.008,0.23053 -0.023,0.41493 -0.0154,0.16906 -0.0231,0.29968 -0.0231,0.39188 -1e-5,1.67509 0.49944,2.92756 1.49835,3.75741 1.01426,0.82987 2.52798,1.24479 4.54117,1.24479 1.73654,0 3.5653,-0.26125 5.48628,-0.78376 1.93632,-0.52249 3.96486,-1.29856 6.08563,-2.32821 l -1.26784,6.40835 c -2.0132,0.73765 -4.01869,1.28321 -6.01647,1.63666 -1.98246,0.36883 -4.00331,0.55324 -6.06257,0.55324 -4.02636,0 -7.13833,-0.92975 -9.33591,-2.78924 -2.18222,-1.8595 -3.27333,-4.48738 -3.27333,-7.88365 0,-1.96706 0.34578,-3.87266 1.03733,-5.7168 0.70691,-1.85948 1.72886,-3.55762 3.06586,-5.09441 1.58287,-1.84411 3.4731,-3.24257 5.6707,-4.19539 2.21294,-0.95278 4.66409,-1.42918 7.35346,-1.4292 3.48846,2e-5 6.25465,0.92977 8.29858,2.78924 2.05925,1.85952 3.08889,4.36446 3.08892,7.51483 -3e-5,0.61472 -0.0461,1.26785 -0.13831,1.95938 -0.0769,0.6762 -0.2075,1.42153 -0.39188,2.23601 m -7.79144,-3.78046 c 0.0461,-0.19977 0.0768,-0.39955 0.0922,-0.59935 0.0307,-0.21513 0.0461,-0.42259 0.0461,-0.62239 -3e-5,-1.2294 -0.36885,-2.20525 -1.10648,-2.92755 -0.73767,-0.72227 -1.73657,-1.08341 -2.99671,-1.08343 -1.61363,2e-5 -2.98904,0.44569 -4.12624,1.33699 -1.12186,0.87598 -1.98245,2.17456 -2.58178,3.89573 l 10.6729,0"
         style="font-size:47.20970153999999752px;font-style:italic;font-variant:normal;font-weight:bold;font-stretch:normal;writing-mode:lr-tb;fill:#ffffff;fill-opacity:1;fill-rule:nonzero;stroke:none;font-family:Neutra Text Light;-inkscape-font-specification:NeutraText-DemiItalic"
         id="path3260"
         inkscape:connector-curvature="0" /><path
         d="m 229.56867,-294.91071 -3.06586,15.7212 -8.27553,0 2.60483,-13.46215 c 0.18439,-0.87594 0.3227,-1.61359 0.41493,-2.21295 0.10755,-0.61469 0.16134,-1.09878 0.16136,-1.45225 -2e-5,-0.98352 -0.27664,-1.74422 -0.82986,-2.28211 -0.53789,-0.53785 -1.30627,-0.80679 -2.30516,-0.80681 -1.70583,2e-5 -3.17345,0.66852 -4.40286,2.00549 -1.21406,1.32164 -2.05929,3.15809 -2.53567,5.50934 l -2.48958,12.70144 -8.27553,0 5.02526,-25.81781 8.29858,0 -0.76071,3.78046 c 1.52139,-1.49064 3.05048,-2.59712 4.58727,-3.31943 1.53676,-0.72226 3.14268,-1.0834 4.81779,-1.08342 2.38197,2e-5 4.21842,0.62242 5.50934,1.86718 1.29086,1.24481 1.9363,2.99673 1.93633,5.25576 -3e-5,0.49179 -0.0384,1.03735 -0.11526,1.63667 -0.0615,0.59936 -0.16139,1.25249 -0.29967,1.95939"
         style="font-size:47.20970153999999752px;font-style:italic;font-variant:normal;font-weight:bold;font-stretch:normal;writing-mode:lr-tb;fill:#ffffff;fill-opacity:1;fill-rule:nonzero;stroke:none;font-family:Neutra Text Light;-inkscape-font-specification:NeutraText-DemiItalic"
         id="path3262"
         inkscape:connector-curvature="0" /><path
         d="m 240.32511,-312.33773 -1.40615,7.33041 8.43689,0 -1.17563,5.90121 -8.43689,0 -2.12075,10.92647 c -0.0615,0.24589 -0.10758,0.45335 -0.13831,0.62239 -0.0154,0.16905 -0.0231,0.33042 -0.0231,0.48408 -1e-5,0.70693 0.23051,1.21406 0.69155,1.52141 0.47639,0.30736 1.26783,0.46104 2.37432,0.46103 l 4.26455,0 -1.17564,5.90122 -6.93853,0 c -2.48958,0 -4.3875,-0.52251 -5.69375,-1.56751 -1.30626,-1.04501 -1.95939,-2.55104 -1.95939,-4.51812 0,-0.43029 0.0231,-0.89132 0.0692,-1.3831 0.0461,-0.49176 0.11525,-0.99121 0.20746,-1.49835 l 2.12075,-10.94952 -4.05708,0 1.12953,-5.90121 4.10318,0 1.4292,-7.33041 8.29858,0"
         style="font-size:47.20970153999999752px;font-style:italic;font-variant:normal;font-weight:bold;font-stretch:normal;writing-mode:lr-tb;fill:#ffffff;fill-opacity:1;fill-rule:nonzero;stroke:none;font-family:Neutra Text Light;-inkscape-font-specification:NeutraText-DemiItalic"
         id="path3264"
         inkscape:connector-curvature="0" /><path
         d="m 269.31389,-291.13025 -0.27662,1.31394 -19.31725,0 c -1e-5,0.0922 -0.008,0.23053 -0.0231,0.41493 -0.0154,0.16906 -0.0231,0.29968 -0.023,0.39188 -1e-5,1.67509 0.49944,2.92756 1.49835,3.75741 1.01426,0.82987 2.52798,1.24479 4.54117,1.24479 1.73654,0 3.56529,-0.26125 5.48628,-0.78376 1.93631,-0.52249 3.96485,-1.29856 6.08563,-2.32821 l -1.26784,6.40835 c -2.0132,0.73765 -4.01869,1.28321 -6.01647,1.63666 -1.98246,0.36883 -4.00331,0.55324 -6.06258,0.55324 -4.02635,0 -7.13832,-0.92975 -9.3359,-2.78924 -2.18222,-1.8595 -3.27333,-4.48738 -3.27333,-7.88365 0,-1.96706 0.34577,-3.87266 1.03732,-5.7168 0.70692,-1.85948 1.72887,-3.55762 3.06587,-5.09441 1.58287,-1.84411 3.4731,-3.24257 5.6707,-4.19539 2.21294,-0.95278 4.66409,-1.42918 7.35346,-1.4292 3.48846,2e-5 6.25465,0.92977 8.29858,2.78924 2.05925,1.85952 3.08889,4.36446 3.08892,7.51483 -3e-5,0.61472 -0.0461,1.26785 -0.13831,1.95938 -0.0769,0.6762 -0.2075,1.42153 -0.39188,2.23601 m -7.79145,-3.78046 c 0.0461,-0.19977 0.0768,-0.39955 0.0922,-0.59935 0.0307,-0.21513 0.0461,-0.42259 0.0461,-0.62239 -2e-5,-1.2294 -0.36884,-2.20525 -1.10647,-2.92755 -0.73767,-0.72227 -1.73658,-1.08341 -2.99671,-1.08343 -1.61363,2e-5 -2.98904,0.44569 -4.12624,1.33699 -1.12186,0.87598 -1.98245,2.17456 -2.58178,3.89573 l 10.67289,0"
         style="font-size:47.20970153999999752px;font-style:italic;font-variant:normal;font-weight:bold;font-stretch:normal;writing-mode:lr-tb;fill:#ffffff;fill-opacity:1;fill-rule:nonzero;stroke:none;font-family:Neutra Text Light;-inkscape-font-specification:NeutraText-DemiItalic"
         id="path3266"
         inkscape:connector-curvature="0" /><path
         d="m 287.78488,-297.97658 c -0.56863,-0.3227 -1.1987,-0.56859 -1.89023,-0.73765 -0.69157,-0.16903 -1.4369,-0.25355 -2.23601,-0.25357 -2.10539,2e-5 -3.85731,0.6762 -5.25576,2.02854 -1.38311,1.35238 -2.32054,3.30408 -2.8123,5.85511 l -2.35126,11.89464 -8.27553,0 5.02525,-25.81781 8.29858,0 -0.89901,4.42591 c 1.09109,-1.62896 2.45113,-2.87374 4.08013,-3.73436 1.64433,-0.87594 3.46541,-1.31392 5.46323,-1.31394 0.29197,2e-5 0.62237,0.0154 0.99122,0.0461 0.3688,0.0308 0.80678,0.0769 1.31394,0.13831 l -1.45225,7.46872"
         style="font-size:47.20970153999999752px;font-style:italic;font-variant:normal;font-weight:bold;font-stretch:normal;writing-mode:lr-tb;fill:#ffffff;fill-opacity:1;fill-rule:nonzero;stroke:none;font-family:Neutra Text Light;-inkscape-font-specification:NeutraText-DemiItalic"
         id="path3268"
         inkscape:connector-curvature="0" /><path
         d="m 316.05777,-315.05782 -1.08343,5.41713 -4.54117,0 c -1.1526,3e-5 -1.99782,0.21517 -2.53567,0.64544 -0.52252,0.41496 -0.88367,1.13724 -1.08343,2.16685 l -0.39188,1.82108 6.98464,0 -1.12953,5.90121 -6.98464,0 -3.87267,19.9166 -8.29858,0 3.87267,-19.9166 -4.08013,0 1.15258,-5.90121 4.05708,0 0.36883,-1.79803 c 0.5686,-2.85836 1.75191,-4.94838 3.54995,-6.27003 1.79801,-1.32159 4.35673,-1.98241 7.67618,-1.98244 l 6.3392,0"
         style="font-size:47.20970153999999752px;font-style:italic;font-variant:normal;font-weight:bold;font-stretch:normal;writing-mode:lr-tb;fill:#ffffff;fill-opacity:1;fill-rule:nonzero;stroke:none;font-family:Neutra Text Light;-inkscape-font-specification:NeutraText-DemiItalic"
         id="path3270"
         inkscape:connector-curvature="0" /><path
         d="m 324.03436,-299.7285 c -2.13613,2e-5 -3.89574,0.96819 -5.27882,2.9045 -1.38311,1.93635 -2.07466,4.40287 -2.07465,7.39957 -10e-6,1.62899 0.36882,2.87378 1.10648,3.73436 0.75301,0.84523 1.84412,1.26785 3.27333,1.26784 2.1361,1e-5 3.8957,-0.96816 5.27882,-2.9045 1.38307,-1.9517 2.07462,-4.43358 2.07464,-7.44567 -2e-5,-1.6136 -0.37653,-2.84302 -1.12953,-3.68826 -0.73767,-0.84521 -1.82109,-1.26782 -3.25027,-1.26784 m 0.66849,-5.90121 c 3.84192,2e-5 6.86168,0.97587 9.05929,2.92755 2.19755,1.95173 3.29635,4.61034 3.29638,7.97586 -3e-5,1.95172 -0.34581,3.84963 -1.03732,5.69375 -0.69158,1.82877 -1.69817,3.50385 -3.01977,5.02525 -1.56753,1.8134 -3.41934,3.18112 -5.55543,4.10319 -2.13614,0.92206 -4.51814,1.38309 -7.146,1.38309 -3.79585,0 -6.79255,-0.97585 -8.99013,-2.92755 -2.18222,-1.9517 -3.27333,-4.61032 -3.27333,-7.97586 0,-1.93632 0.35345,-3.82655 1.06037,-5.6707 0.70692,-1.85948 1.72118,-3.55761 3.04282,-5.0944 1.53676,-1.78264 3.36552,-3.135 5.48628,-4.05709 2.1361,-0.92203 4.49505,-1.38307 7.07684,-1.38309"
         style="font-size:47.20970153999999752px;font-style:italic;font-variant:normal;font-weight:bold;font-stretch:normal;writing-mode:lr-tb;fill:#ffffff;fill-opacity:1;fill-rule:nonzero;stroke:none;font-family:Neutra Text Light;-inkscape-font-specification:NeutraText-DemiItalic"
         id="path3272"
         inkscape:connector-curvature="0" /><path
         d="m 355.38916,-297.97658 c -0.56863,-0.3227 -1.19871,-0.56859 -1.89023,-0.73765 -0.69157,-0.16903 -1.43691,-0.25355 -2.23601,-0.25357 -2.1054,2e-5 -3.85732,0.6762 -5.25576,2.02854 -1.38311,1.35238 -2.32055,3.30408 -2.8123,5.85511 l -2.35127,11.89464 -8.27552,0 5.02525,-25.81781 8.29858,0 -0.89902,4.42591 c 1.0911,-1.62896 2.45114,-2.87374 4.08014,-3.73436 1.64433,-0.87594 3.4654,-1.31392 5.46323,-1.31394 0.29197,2e-5 0.62237,0.0154 0.99122,0.0461 0.3688,0.0308 0.80678,0.0769 1.31394,0.13831 l -1.45225,7.46872"
         style="font-size:47.20970153999999752px;font-style:italic;font-variant:normal;font-weight:bold;font-stretch:normal;writing-mode:lr-tb;fill:#ffffff;fill-opacity:1;fill-rule:nonzero;stroke:none;font-family:Neutra Text Light;-inkscape-font-specification:NeutraText-DemiItalic"
         id="path3274"
         inkscape:connector-curvature="0" /><path
         d="m 389.56326,-312.52215 -1.4292,7.28431 c -1.73659,-0.86056 -3.45009,-1.49832 -5.14051,-1.91328 -1.69048,-0.43027 -3.34251,-0.64542 -4.9561,-0.64544 -2.21297,2e-5 -3.94184,0.3458 -5.18661,1.03732 -1.22943,0.69157 -1.84414,1.65206 -1.84413,2.88145 -10e-6,0.78378 0.26892,1.39849 0.80681,1.84413 0.55322,0.43032 1.68275,0.85293 3.38858,1.26784 l 3.64216,0.89901 c 3.04279,0.76841 5.27111,1.88257 6.68497,3.34248 1.42917,1.44459 2.14377,3.31945 2.1438,5.6246 -3e-5,3.73437 -1.42155,6.73107 -4.26455,8.99013 -2.82769,2.25905 -6.6312,3.38858 -11.41055,3.38858 -2.22834,0 -4.44897,-0.20746 -6.66192,-0.62239 -2.19759,-0.41493 -4.34907,-1.02964 -6.45445,-1.84413 l 1.40615,-7.49177 c 2.04391,1.18332 4.02634,2.06696 5.94732,2.65093 1.93632,0.58398 3.84192,0.87597 5.7168,0.87596 2.02852,1e-5 3.67287,-0.41492 4.93304,-1.24478 1.2755,-0.82985 1.91326,-1.89023 1.91328,-3.18113 -2e-5,-0.84521 -0.28432,-1.49834 -0.85291,-1.95938 -0.56862,-0.47639 -1.81341,-0.96047 -3.73436,-1.45226 l -3.6191,-0.89901 c -2.674,-0.6608 -4.66412,-1.7058 -5.97037,-3.13502 -1.30626,-1.42918 -1.95939,-3.28099 -1.95938,-5.55544 -1e-5,-3.58065 1.36772,-6.44673 4.10318,-8.59825 2.75082,-2.16681 6.44676,-3.25024 11.08783,-3.25027 1.85947,3e-5 3.76507,0.14602 5.7168,0.43798 1.96704,0.27665 3.96485,0.69926 5.99342,1.26783"
         style="font-size:47.20970153999999752px;font-style:italic;font-variant:normal;font-weight:bold;font-stretch:normal;writing-mode:lr-tb;fill:#ffffff;fill-opacity:1;fill-rule:nonzero;stroke:none;font-family:Neutra Text Light;-inkscape-font-specification:NeutraText-DemiItalic"
         id="path3276"
         inkscape:connector-curvature="0" /><path
         d="m 399.04412,-312.33773 -1.40615,7.33041 8.43689,0 -1.17563,5.90121 -8.43689,0 -2.12075,10.92647 c -0.0615,0.24589 -0.10758,0.45335 -0.13831,0.62239 -0.0154,0.16905 -0.0231,0.33042 -0.0231,0.48408 -1e-5,0.70693 0.23051,1.21406 0.69155,1.52141 0.47639,0.30736 1.26783,0.46104 2.37432,0.46103 l 4.26454,0 -1.17563,5.90122 -6.93853,0 c -2.48959,0 -4.3875,-0.52251 -5.69375,-1.56751 -1.30626,-1.04501 -1.95939,-2.55104 -1.95939,-4.51812 0,-0.43029 0.0231,-0.89132 0.0692,-1.3831 0.0461,-0.49176 0.11525,-0.99121 0.20746,-1.49835 l 2.12075,-10.94952 -4.05708,0 1.12953,-5.90121 4.10318,0 1.4292,-7.33041 8.29858,0"
         style="font-size:47.20970153999999752px;font-style:italic;font-variant:normal;font-weight:bold;font-stretch:normal;writing-mode:lr-tb;fill:#ffffff;fill-opacity:1;fill-rule:nonzero;stroke:none;font-family:Neutra Text Light;-inkscape-font-specification:NeutraText-DemiItalic"
         id="path3278"
         inkscape:connector-curvature="0" /><path
         d="m 401.54658,-289.24002 3.01976,-15.7673 8.27553,0 -2.60483,13.43909 c -0.18443,0.87597 -0.32274,1.62131 -0.41493,2.23601 -0.0922,0.61472 -0.13832,1.0988 -0.13831,1.45225 -1e-5,0.96817 0.26892,1.72119 0.80681,2.25906 0.53786,0.53787 1.30624,0.80681 2.30516,0.8068 1.7058,1e-5 3.17342,-0.6608 4.40286,-1.98244 1.2294,-1.32161 2.07462,-3.15806 2.53567,-5.50933 l 2.48958,-12.70144 8.27553,0 -5.0022,25.81781 -8.32164,0 0.76071,-3.78047 c -1.41385,1.49067 -2.89684,2.60483 -4.44896,3.34249 -1.55216,0.73765 -3.18882,1.10647 -4.91,1.10647 -2.35127,0 -4.17234,-0.62239 -5.46323,-1.86718 -1.29089,-1.24478 -1.93634,-3.00439 -1.93633,-5.27882 -10e-6,-0.53786 0.0307,-1.10647 0.0922,-1.70582 0.0615,-0.59933 0.15368,-1.22172 0.27662,-1.86718"
         style="font-size:47.20970153999999752px;font-style:italic;font-variant:normal;font-weight:bold;font-stretch:normal;writing-mode:lr-tb;fill:#ffffff;fill-opacity:1;fill-rule:nonzero;stroke:none;font-family:Neutra Text Light;-inkscape-font-specification:NeutraText-DemiItalic"
         id="path3280"
         inkscape:connector-curvature="0" /><path
         d="m 437.39091,-284.51444 c 2.12073,10e-6 3.84192,-0.97584 5.16356,-2.92755 1.33698,-1.95169 2.00547,-4.50274 2.00549,-7.65314 -2e-5,-1.42918 -0.37653,-2.54334 -1.12952,-3.34248 -0.73768,-0.7991 -1.775,-1.19866 -3.11197,-1.19868 -2.09003,2e-5 -3.81122,0.96818 -5.16356,2.9045 -1.35238,1.92098 -2.02856,4.3875 -2.02855,7.39957 -10e-6,1.56751 0.36114,2.7662 1.08343,3.59605 0.73764,0.81449 1.79801,1.22174 3.18112,1.22173 m 8.69046,-16.71242 2.67399,-13.83096 8.32163,0 -6.98464,35.86831 -8.32163,0 0.7607,-3.73437 c -1.26017,1.50605 -2.5818,2.62021 -3.96487,3.34249 -1.38312,0.70691 -2.89684,1.06037 -4.54117,1.06037 -2.90451,0 -5.20199,-0.92206 -6.89243,-2.76619 -1.69046,-1.84413 -2.53568,-4.35675 -2.53568,-7.53788 0,-1.98243 0.29198,-3.91107 0.87596,-5.78595 0.59934,-1.87485 1.45225,-3.58067 2.55873,-5.11746 1.39846,-1.93631 2.97365,-3.40393 4.72558,-4.40286 1.76728,-0.99888 3.65751,-1.49833 5.6707,-1.49835 1.76727,2e-5 3.26562,0.36116 4.49506,1.08342 1.24477,0.70694 2.29745,1.81342 3.15807,3.31943"
         style="font-size:47.20970153999999752px;font-style:italic;font-variant:normal;font-weight:bold;font-stretch:normal;writing-mode:lr-tb;fill:#ffffff;fill-opacity:1;fill-rule:nonzero;stroke:none;font-family:Neutra Text Light;-inkscape-font-specification:NeutraText-DemiItalic"
         id="path3282"
         inkscape:connector-curvature="0" /><path
         d="m 478.40566,-291.13025 -0.27662,1.31394 -19.31725,0 c -10e-6,0.0922 -0.008,0.23053 -0.0231,0.41493 -0.0154,0.16906 -0.0231,0.29968 -0.0231,0.39188 -10e-6,1.67509 0.49944,2.92756 1.49836,3.75741 1.01426,0.82987 2.52798,1.24479 4.54116,1.24479 1.73654,0 3.5653,-0.26125 5.48629,-0.78376 1.93631,-0.52249 3.96485,-1.29856 6.08562,-2.32821 l -1.26783,6.40835 c -2.0132,0.73765 -4.01869,1.28321 -6.01648,1.63666 -1.98245,0.36883 -4.00331,0.55324 -6.06257,0.55324 -4.02636,0 -7.13832,-0.92975 -9.3359,-2.78924 -2.18222,-1.8595 -3.27333,-4.48738 -3.27333,-7.88365 0,-1.96706 0.34577,-3.87266 1.03732,-5.7168 0.70691,-1.85948 1.72887,-3.55762 3.06587,-5.09441 1.58287,-1.84411 3.4731,-3.24257 5.67069,-4.19539 2.21294,-0.95278 4.6641,-1.42918 7.35347,-1.4292 3.48845,2e-5 6.25464,0.92977 8.29858,2.78924 2.05925,1.85952 3.08888,4.36446 3.08891,7.51483 -3e-5,0.61472 -0.0461,1.26785 -0.13831,1.95938 -0.0769,0.6762 -0.20749,1.42153 -0.39187,2.23601 m -7.79145,-3.78046 c 0.0461,-0.19977 0.0768,-0.39955 0.0922,-0.59935 0.0307,-0.21513 0.0461,-0.42259 0.0461,-0.62239 -2e-5,-1.2294 -0.36885,-2.20525 -1.10648,-2.92755 -0.73767,-0.72227 -1.73657,-1.08341 -2.99671,-1.08343 -1.61363,2e-5 -2.98904,0.44569 -4.12623,1.33699 -1.12186,0.87598 -1.98246,2.17456 -2.58179,3.89573 l 10.6729,0"
         style="font-size:47.20970153999999752px;font-style:italic;font-variant:normal;font-weight:bold;font-stretch:normal;writing-mode:lr-tb;fill:#ffffff;fill-opacity:1;fill-rule:nonzero;stroke:none;font-family:Neutra Text Light;-inkscape-font-specification:NeutraText-DemiItalic"
         id="path3284"
         inkscape:connector-curvature="0" /><path
         d="m 503.05445,-294.91071 -3.06586,15.7212 -8.27553,0 2.60483,-13.46215 c 0.18439,-0.87594 0.3227,-1.61359 0.41493,-2.21295 0.10755,-0.61469 0.16134,-1.09878 0.16136,-1.45225 -2e-5,-0.98352 -0.27664,-1.74422 -0.82986,-2.28211 -0.53789,-0.53785 -1.30628,-0.80679 -2.30516,-0.80681 -1.70584,2e-5 -3.17345,0.66852 -4.40286,2.00549 -1.21406,1.32164 -2.05929,3.15809 -2.53567,5.50934 l -2.48958,12.70144 -8.27553,0 5.02525,-25.81781 8.29858,0 -0.7607,3.78046 c 1.52139,-1.49064 3.05048,-2.59712 4.58727,-3.31943 1.53676,-0.72226 3.14268,-1.0834 4.81779,-1.08342 2.38197,2e-5 4.21842,0.62242 5.50933,1.86718 1.29086,1.24481 1.93631,2.99673 1.93634,5.25576 -3e-5,0.49179 -0.0385,1.03735 -0.11526,1.63667 -0.0615,0.59936 -0.16139,1.25249 -0.29967,1.95939"
         style="font-size:47.20970153999999752px;font-style:italic;font-variant:normal;font-weight:bold;font-stretch:normal;writing-mode:lr-tb;fill:#ffffff;fill-opacity:1;fill-rule:nonzero;stroke:none;font-family:Neutra Text Light;-inkscape-font-specification:NeutraText-DemiItalic"
         id="path3286"
         inkscape:connector-curvature="0" /><path
         d="m 513.81088,-312.33773 -1.40615,7.33041 8.43689,0 -1.17563,5.90121 -8.43689,0 -2.12075,10.92647 c -0.0615,0.24589 -0.10759,0.45335 -0.13831,0.62239 -0.0154,0.16905 -0.0231,0.33042 -0.023,0.48408 -2e-5,0.70693 0.2305,1.21406 0.69154,1.52141 0.47639,0.30736 1.26783,0.46104 2.37432,0.46103 l 4.26455,0 -1.17563,5.90122 -6.93854,0 c -2.48958,0 -4.3875,-0.52251 -5.69375,-1.56751 -1.30626,-1.04501 -1.95939,-2.55104 -1.95938,-4.51812 -1e-5,-0.43029 0.023,-0.89132 0.0691,-1.3831 0.0461,-0.49176 0.11526,-0.99121 0.20747,-1.49835 l 2.12074,-10.94952 -4.05708,0 1.12953,-5.90121 4.10319,0 1.4292,-7.33041 8.29858,0"
         style="font-size:47.20970153999999752px;font-style:italic;font-variant:normal;font-weight:bold;font-stretch:normal;writing-mode:lr-tb;fill:#ffffff;fill-opacity:1;fill-rule:nonzero;stroke:none;font-family:Neutra Text Light;-inkscape-font-specification:NeutraText-DemiItalic"
         id="path3288"
         inkscape:connector-curvature="0" /></g><g
       transform="scale(1,-1)"
       id="text3026"
       style="fill:#ffffff"><path
         d="m 150.799,-262.62713 9.93208,0 -7.5071,38.51583 -9.93208,0 7.5071,-38.51583"
         style="font-size:52.83349991000000045px;font-style:italic;font-variant:normal;font-weight:bold;font-stretch:normal;writing-mode:lr-tb;fill:#ffffff;fill-opacity:1;fill-rule:nonzero;stroke:none;font-family:Neutra Text;-inkscape-font-specification:NeutraText-BoldItalic"
         id="path3291"
         inkscape:connector-curvature="0" /><path
         d="m 172.5664,-262.62713 11.09297,0 8.82278,26.67473 5.18532,-26.67473 9.39033,0 -7.5071,38.51583 -11.09298,0 -8.82278,-26.67472 -5.15952,26.67472 -9.41613,0 7.50711,-38.51583"
         style="font-size:52.83349991000000045px;font-style:italic;font-variant:normal;font-weight:bold;font-stretch:normal;writing-mode:lr-tb;fill:#ffffff;fill-opacity:1;fill-rule:nonzero;stroke:none;font-family:Neutra Text;-inkscape-font-specification:NeutraText-BoldItalic"
         id="path3293"
         inkscape:connector-curvature="0" /><path
         d="m 215.57287,-262.62713 11.09297,0 8.82278,26.67473 5.18532,-26.67473 9.39033,0 -7.50711,38.51583 -11.09297,0 -8.82278,-26.67472 -5.15952,26.67472 -9.41613,0 7.50711,-38.51583"
         style="font-size:52.83349991000000045px;font-style:italic;font-variant:normal;font-weight:bold;font-stretch:normal;writing-mode:lr-tb;fill:#ffffff;fill-opacity:1;fill-rule:nonzero;stroke:none;font-family:Neutra Text;-inkscape-font-specification:NeutraText-BoldItalic"
         id="path3295"
         inkscape:connector-curvature="0" /><path
         d="m 282.46792,-246.83899 c -3e-5,-3.02689 -0.68797,-5.33148 -2.06381,-6.91376 -1.3587,-1.58222 -3.33651,-2.37335 -5.93345,-2.37338 -3.4397,3e-5 -6.32903,1.54789 -8.66799,4.64357 -2.3218,3.07854 -3.48269,6.93958 -3.48268,11.58313 -1e-5,2.95814 0.67932,5.25412 2.03801,6.88796 1.35866,1.63385 3.25048,2.45078 5.67547,2.45077 1.9778,1e-5 3.73204,-0.41275 5.26272,-1.23828 1.54783,-0.84272 2.8635,-2.081 3.94703,-3.71486 1.03187,-1.56504 1.823,-3.32788 2.37338,-5.28851 0.56752,-1.9606 0.85129,-3.97281 0.85132,-6.03664 m -6.55259,-16.48467 c 5.12509,4e-5 9.24411,1.4275 12.35705,4.2824 3.13007,2.83777 4.69512,6.55262 4.69517,11.14457 -5e-5,3.13013 -0.4816,6.08825 -1.44467,8.87438 -0.94595,2.78615 -2.33042,5.28851 -4.15341,7.5071 -2.23583,2.73455 -4.88438,4.78116 -7.94567,6.13983 -3.04414,1.34148 -6.56121,2.01221 -10.55122,2.01221 -5.10794,0 -9.21835,-1.41886 -12.33125,-4.2566 -3.11292,-2.83773 -4.66937,-6.56118 -4.66937,-11.17037 0,-3.14729 0.47295,-6.11401 1.41887,-8.90017 0.94591,-2.78612 2.33898,-5.29708 4.17921,-7.5329 2.20139,-2.71732 4.82414,-4.74673 7.86827,-6.08824 3.0613,-1.34143 6.58697,-2.01217 10.57702,-2.01221"
         style="font-size:52.83349991000000045px;font-style:italic;font-variant:normal;font-weight:bold;font-stretch:normal;writing-mode:lr-tb;fill:#ffffff;fill-opacity:1;fill-rule:nonzero;stroke:none;font-family:Neutra Text;-inkscape-font-specification:NeutraText-BoldItalic"
         id="path3297"
         inkscape:connector-curvature="0" /><path
         d="m 298.42033,-262.62713 9.44193,0 4.72096,28.79013 15.94292,-28.79013 10.24165,0 -21.74738,38.51583 -11.84111,0 -6.75897,-38.51583"
         style="font-size:52.83349991000000045px;font-style:italic;font-variant:normal;font-weight:bold;font-stretch:normal;writing-mode:lr-tb;fill:#ffffff;fill-opacity:1;fill-rule:nonzero;stroke:none;font-family:Neutra Text;-inkscape-font-specification:NeutraText-BoldItalic"
         id="path3299"
         inkscape:connector-curvature="0" /><path
         d="m 356.1694,-231.12825 -15.37537,0 -3.81805,7.01695 -10.19005,0 21.77318,-38.51583 11.35095,0 6.81056,38.51583 -9.44192,0 -1.1093,-7.01695 m -11.63472,-6.99115 10.34484,0 -2.32178,-14.83362 -8.02306,14.83362"
         style="font-size:52.83349991000000045px;font-style:italic;font-variant:normal;font-weight:bold;font-stretch:normal;writing-mode:lr-tb;fill:#ffffff;fill-opacity:1;fill-rule:nonzero;stroke:none;font-family:Neutra Text;-inkscape-font-specification:NeutraText-BoldItalic"
         id="path3301"
         inkscape:connector-curvature="0" /><path
         d="m 370.27391,-262.62713 35.49751,0 -1.47047,7.50711 -12.79561,0 -6.03664,31.00872 -9.93208,0 6.03664,-31.00872 -12.79561,0 1.49626,-7.50711"
         style="font-size:52.83349991000000045px;font-style:italic;font-variant:normal;font-weight:bold;font-stretch:normal;writing-mode:lr-tb;fill:#ffffff;fill-opacity:1;fill-rule:nonzero;stroke:none;font-family:Neutra Text;-inkscape-font-specification:NeutraText-BoldItalic"
         id="path3303"
         inkscape:connector-curvature="0" /><path
         d="m 412.1663,-262.62713 9.93208,0 -7.50711,38.51583 -9.93208,0 7.50711,-38.51583"
         style="font-size:52.83349991000000045px;font-style:italic;font-variant:normal;font-weight:bold;font-stretch:normal;writing-mode:lr-tb;fill:#ffffff;fill-opacity:1;fill-rule:nonzero;stroke:none;font-family:Neutra Text;-inkscape-font-specification:NeutraText-BoldItalic"
         id="path3305"
         inkscape:connector-curvature="0" /><path
         d="m 457.82231,-246.83899 c -4e-5,-3.02689 -0.68797,-5.33148 -2.06381,-6.91376 -1.3587,-1.58222 -3.33652,-2.37335 -5.93345,-2.37338 -3.4397,3e-5 -6.32903,1.54789 -8.668,4.64357 -2.3218,3.07854 -3.48269,6.93958 -3.48267,11.58313 -2e-5,2.95814 0.67932,5.25412 2.03801,6.88796 1.35865,1.63385 3.25048,2.45078 5.67547,2.45077 1.97779,1e-5 3.73203,-0.41275 5.26271,-1.23828 1.54783,-0.84272 2.86351,-2.081 3.94704,-3.71486 1.03187,-1.56504 1.823,-3.32788 2.37338,-5.28851 0.56751,-1.9606 0.85128,-3.97281 0.85132,-6.03664 m -6.5526,-16.48467 c 5.1251,4e-5 9.24411,1.4275 12.35706,4.2824 3.13007,2.83777 4.69512,6.55262 4.69516,11.14457 -4e-5,3.13013 -0.48159,6.08825 -1.44466,8.87438 -0.94596,2.78615 -2.33043,5.28851 -4.15342,7.5071 -2.23583,2.73455 -4.88438,4.78116 -7.94566,6.13983 -3.04414,1.34148 -6.56121,2.01221 -10.55122,2.01221 -5.10794,0 -9.21836,-1.41886 -12.33126,-4.2566 -3.11291,-2.83773 -4.66937,-6.56118 -4.66937,-11.17037 0,-3.14729 0.47296,-6.11401 1.41887,-8.90017 0.94591,-2.78612 2.33898,-5.29708 4.17922,-7.5329 2.20138,-2.71732 4.82414,-4.74673 7.86827,-6.08824 3.06129,-1.34143 6.58696,-2.01217 10.57701,-2.01221"
         style="font-size:52.83349991000000045px;font-style:italic;font-variant:normal;font-weight:bold;font-stretch:normal;writing-mode:lr-tb;fill:#ffffff;fill-opacity:1;fill-rule:nonzero;stroke:none;font-family:Neutra Text;-inkscape-font-specification:NeutraText-BoldItalic"
         id="path3307"
         inkscape:connector-curvature="0" /><path
         d="m 482.06504,-262.62713 11.09297,0 8.82278,26.67473 5.18532,-26.67473 9.39033,0 -7.5071,38.51583 -11.09297,0 -8.82279,-26.67472 -5.15952,26.67472 -9.41612,0 7.5071,-38.51583"
         style="font-size:52.83349991000000045px;font-style:italic;font-variant:normal;font-weight:bold;font-stretch:normal;writing-mode:lr-tb;fill:#ffffff;fill-opacity:1;fill-rule:nonzero;stroke:none;font-family:Neutra Text;-inkscape-font-specification:NeutraText-BoldItalic"
         id="path3309"
         inkscape:connector-curvature="0" /></g><g
       id="g3030"
       transform="translate(178.4521,481.7495)"
       style="fill:#ffffff"><path
         d="m 0,0 c 1.132,-7.159 -3.754,-13.871 -10.909,-15.002 -7.15,-1.132 -13.868,3.749 -15,10.906 -1.129,7.151 3.754,13.869 10.907,14.998 C -7.849,12.034 -1.131,7.15 0,0"
         style="fill:#ffffff;fill-opacity:1;fill-rule:nonzero;stroke:none"
         id="path3032"
         inkscape:connector-curvature="0" /></g><g
       id="g3034"
       transform="translate(230.6963,514.0366)"
       style="fill:#ffffff"><path
         d="m 0,0 c 1.175,-7.417 -3.884,-14.375 -11.3,-15.547 -7.415,-1.173 -14.373,3.885 -15.546,11.302 -1.17,7.412 3.888,14.37 11.298,15.543 C -8.129,12.471 -1.171,7.41 0,0"
         style="fill:#ffffff;fill-opacity:1;fill-rule:nonzero;stroke:none"
         id="path3036"
         inkscape:connector-curvature="0" /></g><g
       id="g3038"
       transform="translate(196.438,416.4893)"
       style="fill:#ffffff"><path
         d="m 0,0 c 1.052,-6.659 -3.496,-12.916 -10.158,-13.97 -6.661,-1.051 -12.919,3.496 -13.97,10.158 -1.054,6.66 3.496,12.916 10.156,13.968 C -7.309,11.208 -1.056,6.664 0,0"
         style="fill:#ffffff;fill-opacity:1;fill-rule:nonzero;stroke:none"
         id="path3040"
         inkscape:connector-curvature="0" /></g><g
       id="g3042"
       transform="translate(171.1436,547.9463)"
       style="fill:#ffffff"><path
         d="m 0,0 c 0.954,-6.147 -3.254,-11.906 -9.398,-12.867 -6.145,-0.954 -11.904,3.25 -12.861,9.399 -0.96,6.144 3.25,11.906 9.395,12.86 C -6.72,10.353 -0.96,6.143 0,0"
         style="fill:#ffffff;fill-opacity:1;fill-rule:nonzero;stroke:none"
         id="path3044"
         inkscape:connector-curvature="0" /></g><g
       id="g3046"
       transform="translate(252.0552,419.752)"
       style="fill:#ffffff"><path
         d="m 0,0 c 1.337,-8.455 -4.434,-16.399 -12.895,-17.737 -8.456,-1.337 -16.396,4.44 -17.733,12.895 -1.337,8.458 4.436,16.396 12.891,17.733 C -9.275,14.228 -1.337,8.458 0,0"
         style="fill:#ffffff;fill-opacity:1;fill-rule:nonzero;stroke:none"
         id="path3048"
         inkscape:connector-curvature="0" /></g><g
       id="g3050"
       transform="translate(315.3291,501.8794)"
       style="fill:#ffffff"><path
         d="m 0,0 c 1.116,-7.068 -3.709,-13.707 -10.775,-14.823 -7.066,-1.116 -13.704,3.709 -14.821,10.777 -1.116,7.064 3.709,13.695 10.777,14.812 C -7.757,11.884 -1.117,7.062 0,0"
         style="fill:#ffffff;fill-opacity:1;fill-rule:nonzero;stroke:none"
         id="path3052"
         inkscape:connector-curvature="0" /></g><g
       id="g3054"
       transform="translate(150.0381,503.7813)"
       style="fill:#ffffff"><path
         d="m 0,0 c 0.993,-6.288 -3.297,-12.181 -9.576,-13.176 -6.283,-0.991 -12.181,3.293 -13.176,9.58 -0.991,6.279 3.297,12.175 9.58,13.167 C -6.891,10.564 -0.995,6.278 0,0"
         style="fill:#ffffff;fill-opacity:1;fill-rule:nonzero;stroke:none"
         id="path3056"
         inkscape:connector-curvature="0" /></g><g
       id="g3058"
       transform="translate(251.5249,548.104)"
       style="fill:#ffffff"><path
         d="m 0,0 c 1.337,-8.458 -4.438,-16.397 -12.897,-17.735 -8.456,-1.337 -16.398,4.434 -17.737,12.893 -1.337,8.46 4.44,16.4 12.895,17.737 C -9.28,14.232 -1.337,8.459 0,0"
         style="fill:#ffffff;fill-opacity:1;fill-rule:nonzero;stroke:none"
         id="path3060"
         inkscape:connector-curvature="0" /></g><g
       id="g3062"
       transform="translate(259.6729,459.5967)"
       style="fill:#ffffff"><path
         d="m 0,0 c 1.337,-8.455 -4.433,-16.396 -12.895,-17.733 -8.457,-1.337 -16.396,4.436 -17.732,12.891 -1.338,8.455 4.435,16.4 12.89,17.737 C -9.275,14.232 -1.337,8.455 0,0"
         style="fill:#ffffff;fill-opacity:1;fill-rule:nonzero;stroke:none"
         id="path3064"
         inkscape:connector-curvature="0" /></g><g
       id="g3066"
       transform="translate(218.1519,438.2271)"
       style="fill:#ffffff"><path
         d="m 0,0 c 0.898,-5.675 -2.975,-11.002 -8.652,-11.897 -5.675,-0.898 -11,2.972 -11.9,8.649 C -21.448,2.43 -17.575,7.756 -11.9,8.654 -6.225,9.55 -0.898,5.679 0,0"
         style="fill:#ffffff;fill-opacity:1;fill-rule:nonzero;stroke:none"
         id="path3068"
         inkscape:connector-curvature="0" /></g><g
       id="g3070"
       transform="translate(190.0034,449.6855)"
       style="fill:#ffffff"><path
         d="m 0,0 c 1.002,-6.329 -3.316,-12.266 -9.643,-13.265 -6.324,-1.002 -12.259,3.314 -13.26,9.643 -1,6.324 3.314,12.261 9.64,13.261 C -6.938,10.638 -1,6.324 0,0"
         style="fill:#ffffff;fill-opacity:1;fill-rule:nonzero;stroke:none"
         id="path3072"
         inkscape:connector-curvature="0" /></g><g
       id="g3074"
       transform="translate(207.2212,541.1631)"
       style="fill:#ffffff"><path
         d="m 0,0 c 1.047,-6.625 -3.477,-12.847 -10.104,-13.894 -6.627,-1.047 -12.847,3.475 -13.896,10.099 -1.045,6.628 3.477,12.848 10.104,13.897 C -7.271,11.149 -1.049,6.625 0,0"
         style="fill:#ffffff;fill-opacity:1;fill-rule:nonzero;stroke:none"
         id="path3076"
         inkscape:connector-curvature="0" /></g><g
       id="g3078"
       transform="translate(186.0488,516.8989)"
       style="fill:#ffffff"><path
         d="m 0,0 c 1.205,-7.625 -4,-14.786 -11.627,-15.991 -7.623,-1.207 -14.782,4.003 -15.987,11.625 -1.205,7.624 3.998,14.783 11.621,15.991 C -8.365,12.83 -1.208,7.622 0,0"
         style="fill:#ffffff;fill-opacity:1;fill-rule:nonzero;stroke:none"
         id="path3080"
         inkscape:connector-curvature="0" /></g><g
       id="g3082"
       transform="translate(219.0562,479.8413)"
       style="fill:#ffffff"><path
         d="m 0,0 c 1.335,-8.458 -4.433,-16.398 -12.895,-17.735 -8.455,-1.337 -16.394,4.435 -17.73,12.895 -1.337,8.455 4.433,16.396 12.888,17.733 C -9.275,14.23 -1.337,8.458 0,0"
         style="fill:#ffffff;fill-opacity:1;fill-rule:nonzero;stroke:none"
         id="path3084"
         inkscape:connector-curvature="0" /></g><g
       id="g3086"
       transform="translate(139.7764,539.084)"
       style="fill:#ffffff"><path
         d="m 0,0 c 0,-10.461 -8.481,-18.936 -18.94,-18.936 -10.452,0 -18.932,8.475 -18.932,18.936 0,10.457 8.48,18.936 18.932,18.936 C -8.481,18.936 0,10.457 0,0"
         style="fill:#ffffff;fill-opacity:1;fill-rule:nonzero;stroke:none"
         id="path3088"
         inkscape:connector-curvature="0" /></g><g
       id="g3090"
       transform="translate(134.0859,383.7637)"
       style="fill:#ffffff"><path
         d="m 0,0 c 3.046,4.147 6.824,1.181 3.652,-3.854 -4.225,-6.709 -21.129,-45.212 -20.073,-103.029 0.458,-25.206 9.511,-49.193 10.339,-58.741 0.427,-4.92 -2.185,-7.2 -5.476,-2.887 -6.78,8.895 -17.984,52.264 -9.121,103.036 C -16.013,-38.75 -7.062,-9.606 0,0"
         style="fill:#ffffff;fill-opacity:1;fill-rule:nonzero;stroke:none"
         id="path3092"
         inkscape:connector-curvature="0" /></g><g
       id="g3094"
       transform="translate(257.8467,595.3784)"
       style="fill:#ffffff"><path
         d="m 0,0 c 0,-10.753 -8.719,-19.472 -19.477,-19.472 -10.748,0 -19.467,8.719 -19.467,19.472 0,10.755 8.719,19.474 19.467,19.474 C -8.719,19.474 0,10.755 0,0"
         style="fill:#ffffff;fill-opacity:1;fill-rule:nonzero;stroke:none"
         id="path3096"
         inkscape:connector-curvature="0" /></g><g
       id="g3098"
       transform="translate(187.7729,586.3711)"
       style="fill:#ffffff"><path
         d="m 0,0 c 0,-10.489 -8.503,-18.989 -18.992,-18.989 -10.485,0 -18.985,8.5 -18.985,18.989 0,10.487 8.5,18.988 18.985,18.988 C -8.503,18.988 0,10.487 0,0"
         style="fill:#ffffff;fill-opacity:1;fill-rule:nonzero;stroke:none"
         id="path3100"
         inkscape:connector-curvature="0" /></g><g
       id="g3102"
       transform="translate(129.2593,473.0732)"
       style="fill:#ffffff"><path
         d="m 0,0 c 0,-10.859 -8.804,-19.66 -19.665,-19.66 -10.853,0 -19.654,8.801 -19.654,19.66 0,10.855 8.801,19.661 19.654,19.661 C -8.804,19.661 0,10.855 0,0"
         style="fill:#ffffff;fill-opacity:1;fill-rule:nonzero;stroke:none"
         id="path3104"
         inkscape:connector-curvature="0" /></g><g
       id="g3106"
       transform="translate(162.4893,408.835)"
       style="fill:#ffffff"><path
         d="m 0,0 c -0.573,-10.851 -9.84,-19.188 -20.697,-18.616 -10.852,0.57 -19.191,9.834 -18.619,20.691 0.573,10.854 9.839,19.193 20.69,18.621 C -7.767,20.123 0.571,10.859 0,0"
         style="fill:#ffffff;fill-opacity:1;fill-rule:nonzero;stroke:none"
         id="path3108"
         inkscape:connector-curvature="0" /></g><g
       id="g3110"
       transform="translate(230.3262,380.8965)"
       style="fill:#ffffff"><path
         d="m 0,0 c 0,-11.127 -9.02,-20.143 -20.145,-20.143 -11.119,0 -20.136,9.016 -20.136,20.143 0,11.123 9.017,20.141 20.136,20.141 C -9.02,20.141 0,11.123 0,0"
         style="fill:#ffffff;fill-opacity:1;fill-rule:nonzero;stroke:none"
         id="path3112"
         inkscape:connector-curvature="0" /></g><g
       id="g3114"
       transform="translate(300.876,402.21)"
       style="fill:#ffffff"><path
         d="m 0,0 c 0,-10.706 -8.676,-19.384 -19.383,-19.384 -10.703,0 -19.382,8.678 -19.382,19.384 0,10.703 8.679,19.383 19.382,19.383 C -8.676,19.383 0,10.703 0,0"
         style="fill:#ffffff;fill-opacity:1;fill-rule:nonzero;stroke:none"
         id="path3116"
         inkscape:connector-curvature="0" /></g><g
       id="g3118"
       transform="translate(341.0342,460.0918)"
       style="fill:#ffffff"><path
         d="m 0,0 c 0,-10.127 -8.209,-18.334 -18.339,-18.334 -10.121,0 -18.329,8.207 -18.329,18.334 0,10.124 8.208,18.336 18.329,18.336 C -8.209,18.336 0,10.124 0,0"
         style="fill:#ffffff;fill-opacity:1;fill-rule:nonzero;stroke:none"
         id="path3120"
         inkscape:connector-curvature="0" /></g><g
       id="g3122"
       transform="translate(354.6514,562.9375)"
       style="fill:#ffffff"><path
         d="m 0,0 c 0,-10.521 -8.533,-19.048 -19.052,-19.048 -10.517,0 -19.046,8.527 -19.046,19.048 0,10.52 8.529,19.048 19.046,19.048 C -8.533,19.048 0,10.52 0,0"
         style="fill:#ffffff;fill-opacity:1;fill-rule:nonzero;stroke:none"
         id="path3124"
         inkscape:connector-curvature="0" /></g><g
       id="g3126"
       transform="translate(210.5986,601.605)"
       style="fill:#ffffff"><path
         d="m 0,0 c 0,-5.26 -4.264,-9.524 -9.524,-9.524 -5.257,0 -9.524,4.264 -9.524,9.524 0,5.26 4.267,9.524 9.524,9.524 C -4.264,9.524 0,5.26 0,0"
         style="fill:#ffffff;fill-opacity:1;fill-rule:nonzero;stroke:none"
         id="path3128"
         inkscape:connector-curvature="0" /></g><g
       id="g3130"
       transform="translate(144.1338,572.8037)"
       style="fill:#ffffff"><path
         d="m 0,0 c 0,-5.26 -4.265,-9.522 -9.524,-9.522 -5.258,0 -9.524,4.262 -9.524,9.522 0,5.262 4.266,9.526 9.524,9.526 C -4.265,9.526 0,5.262 0,0"
         style="fill:#ffffff;fill-opacity:1;fill-rule:nonzero;stroke:none"
         id="path3132"
         inkscape:connector-curvature="0" /></g><g
       id="g3134"
       transform="translate(109.3477,508.5537)"
       style="fill:#ffffff"><path
         d="m 0,0 c 0,-5.262 -4.262,-9.524 -9.524,-9.524 -5.258,0 -9.522,4.262 -9.522,9.524 0,5.26 4.264,9.524 9.522,9.524 C -4.262,9.524 0,5.26 0,0"
         style="fill:#ffffff;fill-opacity:1;fill-rule:nonzero;stroke:none"
         id="path3136"
         inkscape:connector-curvature="0" /></g><g
       id="g3138"
       transform="translate(124.8564,435.4424)"
       style="fill:#ffffff"><path
         d="m 0,0 c 0,-5.257 -4.265,-9.524 -9.524,-9.524 -5.258,0 -9.524,4.267 -9.524,9.524 0,5.262 4.266,9.524 9.524,9.524 C -4.265,9.524 0,5.262 0,0"
         style="fill:#ffffff;fill-opacity:1;fill-rule:nonzero;stroke:none"
         id="path3140"
         inkscape:connector-curvature="0" /></g><g
       id="g3142"
       transform="translate(180.2437,386.7012)"
       style="fill:#ffffff"><path
         d="m 0,0 c 0,-5.262 -4.267,-9.523 -9.526,-9.523 -5.258,0 -9.522,4.261 -9.522,9.523 0,5.258 4.264,9.524 9.522,9.524 C -4.267,9.524 0,5.258 0,0"
         style="fill:#ffffff;fill-opacity:1;fill-rule:nonzero;stroke:none"
         id="path3144"
         inkscape:connector-curvature="0" /></g><g
       id="g3146"
       transform="translate(257.7861,382.2725)"
       style="fill:#ffffff"><path
         d="m 0,0 c 0,-5.262 -4.264,-9.524 -9.526,-9.524 -5.255,0 -9.522,4.262 -9.522,9.524 0,5.258 4.267,9.522 9.522,9.522 C -4.264,9.522 0,5.258 0,0"
         style="fill:#ffffff;fill-opacity:1;fill-rule:nonzero;stroke:none"
         id="path3148"
         inkscape:connector-curvature="0" /></g><g
       id="g3150"
       transform="translate(319.8203,426.5825)"
       style="fill:#ffffff"><path
         d="m 0,0 c 0,-5.262 -4.267,-9.524 -9.528,-9.524 -5.258,0 -9.52,4.262 -9.52,9.524 0,5.257 4.262,9.522 9.52,9.522 C -4.267,9.522 0,5.257 0,0"
         style="fill:#ffffff;fill-opacity:1;fill-rule:nonzero;stroke:none"
         id="path3152"
         inkscape:connector-curvature="0" /></g><g
       id="g3154"
       transform="translate(373.8984,479.813)"
       style="fill:#ffffff"><path
         d="m 0,0 c 0,-5.26 -4.264,-9.522 -9.523,-9.522 -5.258,0 -9.523,4.262 -9.523,9.522 0,5.26 4.265,9.524 9.523,9.524 C -4.264,9.524 0,5.26 0,0"
         style="fill:#ffffff;fill-opacity:1;fill-rule:nonzero;stroke:none"
         id="path3156"
         inkscape:connector-curvature="0" /></g><g
       id="g3158"
       transform="translate(423.6846,585.3135)"
       style="fill:#ffffff"><path
         d="m 0,0 c 0,-8.038 -6.517,-14.55 -14.554,-14.55 -8.034,0 -14.55,6.512 -14.55,14.55 0,8.04 6.516,14.554 14.55,14.554 C -6.517,14.554 0,8.04 0,0"
         style="fill:#ffffff;fill-opacity:1;fill-rule:nonzero;stroke:none"
         id="path3160"
         inkscape:connector-curvature="0" /></g><g
       id="g3162"
       transform="translate(446.4326,558.1411)"
       style="fill:#ffffff"><path
         d="m 0,0 c 0,-5.593 -4.532,-10.124 -10.128,-10.124 -5.586,0 -10.119,4.531 -10.119,10.124 0,5.593 4.533,10.125 10.119,10.125 C -4.532,10.125 0,5.593 0,0"
         style="fill:#ffffff;fill-opacity:1;fill-rule:nonzero;stroke:none"
         id="path3164"
         inkscape:connector-curvature="0" /></g><g
       id="g3166"
       transform="translate(216.8018,568.6929)"
       style="fill:#ffffff"><path
         d="m 0,0 c 0,-5.262 -4.265,-9.524 -9.526,-9.524 -5.258,0 -9.524,4.262 -9.524,9.524 0,5.257 4.266,9.524 9.524,9.524 C -4.265,9.524 0,5.257 0,0"
         style="fill:#ffffff;fill-opacity:1;fill-rule:nonzero;stroke:none"
         id="path3168"
         inkscape:connector-curvature="0" /></g><g
       id="g3170"
       transform="translate(291.5425,448.811)"
       style="fill:#ffffff"><path
         d="m 0,0 c 0.991,-6.279 -3.295,-12.181 -9.576,-13.174 -6.283,-0.993 -12.181,3.298 -13.174,9.576 -0.993,6.283 3.295,12.179 9.578,13.172 C -6.893,10.567 -0.993,6.283 0,0"
         style="fill:#ffffff;fill-opacity:1;fill-rule:nonzero;stroke:none"
         id="path3172"
         inkscape:connector-curvature="0" /></g><g
       id="g3174"
       transform="translate(157.7925,453.5625)"
       style="fill:#ffffff"><path
         d="m 0,0 c 0.993,-6.285 -3.297,-12.181 -9.576,-13.174 -6.283,-0.993 -12.181,3.293 -13.176,9.578 -0.991,6.279 3.297,12.175 9.58,13.17 C -6.891,10.564 -0.996,6.278 0,0"
         style="fill:#ffffff;fill-opacity:1;fill-rule:nonzero;stroke:none"
         id="path3176"
         inkscape:connector-curvature="0" /></g><g
       id="g3178"
       transform="translate(257.8574,492.3335)"
       style="fill:#ffffff"><path
         d="m 0,0 c 0.993,-6.285 -3.297,-12.181 -9.576,-13.174 -6.283,-0.993 -12.181,3.293 -13.176,9.578 -0.991,6.279 3.297,12.175 9.581,13.17 C -6.891,10.565 -0.995,6.279 0,0"
         style="fill:#ffffff;fill-opacity:1;fill-rule:nonzero;stroke:none"
         id="path3180"
         inkscape:connector-curvature="0" /></g><g
       id="g3182"
       transform="translate(275.2139,566.1831)"
       style="fill:#ffffff"><path
         d="m 0,0 c 0.993,-6.288 -3.297,-12.181 -9.576,-13.176 -6.283,-0.991 -12.181,3.293 -13.176,9.58 -0.991,6.279 3.297,12.175 9.58,13.168 C -6.891,10.564 -0.995,6.279 0,0"
         style="fill:#ffffff;fill-opacity:1;fill-rule:nonzero;stroke:none"
         id="path3184"
         inkscape:connector-curvature="0" /></g><g
       id="g3186"
       transform="translate(342.8711,542.5586)"
       style="fill:#ffffff"><path
         d="m 0,0 c -0.128,1.208 1.025,1.519 1.274,0.158 0.333,-1.815 3.548,-10.777 13.09,-19.022 4.16,-3.594 9.654,-5.316 11.346,-6.549 0.872,-0.636 0.776,-1.484 -0.507,-1.502 -2.647,-0.036 -11.661,4.094 -18.297,13.268 C 3.416,-8.823 0.296,-2.795 0,0"
         style="fill:#ffffff;fill-opacity:1;fill-rule:nonzero;stroke:none"
         id="path3188"
         inkscape:connector-curvature="0" /></g><g
       id="g3190"
       transform="translate(313.7822,511.6221)"
       style="fill:#ffffff"><path
         d="m 0,0 c -0.258,-0.991 0.545,-1.744 0.912,-0.671 0.489,1.428 4.058,7.819 12.16,10.952 3.531,1.363 7.786,0.554 9.193,0.911 0.722,0.184 0.768,0.954 -0.169,1.508 C 20.162,13.838 13.005,14.039 6.903,8.895 3.695,6.188 0.595,2.289 0,0"
         style="fill:#ffffff;fill-opacity:1;fill-rule:nonzero;stroke:none"
         id="path3192"
         inkscape:connector-curvature="0" /></g><g
       id="g3194"
       transform="translate(422.0234,596.7324)"
       style="fill:#ffffff"><path
         d="m 0,0 c -0.844,-0.58 -0.729,-1.674 0.251,-1.101 1.305,0.759 8.183,3.265 16.36,0.335 3.564,-1.276 6.253,-4.673 7.552,-5.322 0.668,-0.331 1.207,0.223 0.858,1.255 C 24.304,-2.708 19.02,2.123 11.041,2.22 6.843,2.268 1.947,1.346 0,0"
         style="fill:#ffffff;fill-opacity:1;fill-rule:nonzero;stroke:none"
         id="path3196"
         inkscape:connector-curvature="0" /></g><g
       id="g3198"
       transform="translate(446.1621,547.916)"
       style="fill:#ffffff"><path
         d="m 0,0 c -0.61,0.552 -1.481,0.324 -0.856,-0.331 0.831,-0.874 3.989,-5.682 2.937,-12.172 -0.458,-2.826 -2.784,-5.284 -3.1,-6.34 -0.165,-0.536 0.374,-0.867 1.158,-0.471 1.609,0.815 4.686,5.396 3.464,11.363 C 2.96,-4.81 1.411,-1.279 0,0"
         style="fill:#ffffff;fill-opacity:1;fill-rule:nonzero;stroke:none"
         id="path3200"
         inkscape:connector-curvature="0" /></g></g></svg>