<?xml version="1.0" encoding="UTF-8" standalone="no"?>
<!-- Created with Inkscape (http://www.inkscape.org/) -->

<svg
   xmlns:dc="http://purl.org/dc/elements/1.1/"
   xmlns:cc="http://creativecommons.org/ns#"
   xmlns:rdf="http://www.w3.org/1999/02/22-rdf-syntax-ns#"
   xmlns:svg="http://www.w3.org/2000/svg"
   xmlns="http://www.w3.org/2000/svg"
   xmlns:sodipodi="http://sodipodi.sourceforge.net/DTD/sodipodi-0.dtd"
   xmlns:inkscape="http://www.inkscape.org/namespaces/inkscape"
   id="svg3125"
   version="1.1"
   inkscape:version="0.48.1 r9760"
   width="370"
   height="80"
   xml:space="preserve"
   sodipodi:docname="imagine_logo.svg"><metadata
     id="metadata3131"><rdf:RDF><cc:Work
         rdf:about=""><dc:format>image/svg+xml</dc:format><dc:type
           rdf:resource="http://purl.org/dc/dcmitype/StillImage" /><dc:title /></cc:Work></rdf:RDF></metadata><defs
     id="defs3129"><clipPath
       clipPathUnits="userSpaceOnUse"
       id="clipPath3149"><path
         d="M 0,288 360,288 360,0 0,0 0,288 z"
         id="path3151"
         inkscape:connector-curvature="0" /></clipPath></defs><sodipodi:namedview
     pagecolor="#ffffff"
     bordercolor="#666666"
     borderopacity="1"
     objecttolerance="10"
     gridtolerance="10"
     guidetolerance="10"
     inkscape:pageopacity="0"
     inkscape:pageshadow="2"
     inkscape:window-width="1280"
     inkscape:window-height="729"
     id="namedview3127"
     showgrid="false"
     fit-margin-top="0"
     fit-margin-left="0"
     fit-margin-right="0"
     fit-margin-bottom="0"
     inkscape:zoom="0.83888889"
     inkscape:cx="189.22134"
     inkscape:cy="129.64112"
     inkscape:window-x="0"
     inkscape:window-y="25"
     inkscape:window-maximized="1"
     inkscape:current-layer="g3147" /><g
     id="g3133"
     inkscape:groupmode="layer"
     inkscape:label="imagine_text"
     transform="matrix(1.25,0,0,-1.25,-40.546875,130.35887)"><path
       d="m 33.602,40.781 -1.162,0 0,9.319 1.162,0 0,-9.319 z"
       style="fill:#ffffff;fill-opacity:1;fill-rule:nonzero;stroke:#ffffff"
       id="path3135"
       inkscape:connector-curvature="0" /><g
       id="g3137"
       transform="translate(38.5093,50.5449)"
       style="fill:#ffffff;stroke:#ffffff"><path
         d="m 0,0 6.996,-7.329 0,6.885 1.161,0 0,-9.702 -6.995,7.329 0,-6.947 L 0,-9.764 0,0 z"
         style="fill:#ffffff;fill-opacity:1;fill-rule:nonzero;stroke:#ffffff"
         id="path3139"
         inkscape:connector-curvature="0" /></g><g
       id="g3141"
       transform="translate(51.4878,50.5449)"
       style="fill:#ffffff;stroke:#ffffff"><path
         d="m 0,0 6.996,-7.329 0,6.885 1.161,0 0,-9.702 -6.995,7.329 0,-6.947 L 0,-9.764 0,0 z"
         style="fill:#ffffff;fill-opacity:1;fill-rule:nonzero;stroke:#ffffff"
         id="path3143"
         inkscape:connector-curvature="0" /></g><g
       id="g3145"><g
         id="g3147"
         clip-path="url(#clipPath3149)"><g
           id="g3153"
           transform="translate(72.5249,45.4404)"
           style="fill:#ffffff;stroke:#ffffff"><path
             d="m 0,0 c 0,2.052 -1.532,3.771 -3.72,3.771 -2.188,0 -3.72,-1.719 -3.72,-3.771 0,-2.125 1.705,-3.77 3.72,-3.77 C -1.706,-3.77 0,-2.125 0,0 m 1.162,0 c 0,-2.769 -2.187,-4.856 -4.882,-4.856 -2.695,0 -4.882,2.087 -4.882,4.856 0,2.67 2.212,4.857 4.882,4.857 2.67,0 4.882,-2.187 4.882,-4.857"
             style="fill:#ffffff;fill-opacity:1;fill-rule:nonzero;stroke:#ffffff"
             id="path3155"
             inkscape:connector-curvature="0" /></g><g
           id="g3157"
           transform="translate(81.166,43.2041)"
           style="fill:#ffffff;stroke:#ffffff"><path
             d="m 0,0 2.769,6.896 1.273,0 L 0,-2.917 l -4.054,9.813 1.273,0 L 0,0 z"
             style="fill:#ffffff;fill-opacity:1;fill-rule:nonzero;stroke:#ffffff"
             id="path3159"
             inkscape:connector-curvature="0" /></g><g
           id="g3161"
           transform="translate(91.5015,47.9502)"
           style="fill:#ffffff;stroke:#ffffff"><path
             d="m 0,0 -1.656,-3.771 3.312,0 L 0,0 z m -2.138,-4.833 -1.063,-2.336 -1.248,0 4.449,9.715 4.449,-9.715 -1.248,0 -1.063,2.336 -4.276,0 z"
             style="fill:#ffffff;fill-opacity:1;fill-rule:nonzero;stroke:#ffffff"
             id="path3163"
             inkscape:connector-curvature="0" /></g><g
           id="g3165"
           transform="translate(101.5283,40.7813)"
           style="fill:#ffffff;stroke:#ffffff"><path
             d="m 0,0 -1.162,0 0,8.256 -2.212,0 0,1.063 5.586,0 0,-1.063 L 0,8.256 0,0 z"
             style="fill:#ffffff;fill-opacity:1;fill-rule:nonzero;stroke:#ffffff"
             id="path3167"
             inkscape:connector-curvature="0" /></g><path
           d="m 109.056,40.781 -1.162,0 0,9.319 1.162,0 0,-9.319 z"
           style="fill:#ffffff;fill-opacity:1;fill-rule:nonzero;stroke:#ffffff"
           id="path3169"
           inkscape:connector-curvature="0" /><g
           id="g3171"
           transform="translate(122.022,45.4404)"
           style="fill:#ffffff;stroke:#ffffff"><path
             d="m 0,0 c 0,2.052 -1.532,3.771 -3.72,3.771 -2.188,0 -3.72,-1.719 -3.72,-3.771 0,-2.125 1.705,-3.77 3.72,-3.77 C -1.706,-3.77 0,-2.125 0,0 m 1.162,0 c 0,-2.769 -2.187,-4.856 -4.882,-4.856 -2.695,0 -4.882,2.087 -4.882,4.856 0,2.67 2.212,4.857 4.882,4.857 2.67,0 4.882,-2.187 4.882,-4.857"
             style="fill:#ffffff;fill-opacity:1;fill-rule:nonzero;stroke:#ffffff"
             id="path3173"
             inkscape:connector-curvature="0" /></g><g
           id="g3175"
           transform="translate(127.4741,50.5449)"
           style="fill:#ffffff;stroke:#ffffff"><path
             d="m 0,0 6.996,-7.329 0,6.885 1.161,0 0,-9.702 -6.995,7.329 0,-6.947 L 0,-9.764 0,0 z"
             style="fill:#ffffff;fill-opacity:1;fill-rule:nonzero;stroke:#ffffff"
             id="path3177"
             inkscape:connector-curvature="0" /></g><g
           id="g3179"
           transform="translate(146.6108,50.1016)"
           style="fill:#ffffff;stroke:#ffffff"><path
             d="m 0,0 0.874,0 0,-4.224 4.223,0 0,-0.873 -4.223,0 0,-4.223 -0.874,0 0,4.223 -4.223,0 0,0.873 4.223,0 L 0,0 z"
             style="fill:#ffffff;fill-opacity:1;fill-rule:nonzero;stroke:#ffffff"
             id="path3181"
             inkscape:connector-curvature="0" /></g><g
           id="g3183"
           transform="translate(165.1855,48.3203)"
           style="fill:#ffffff;stroke:#ffffff"><path
             d="m 0,0 c -0.667,0.594 -1.582,0.915 -2.459,0.915 -2.089,0 -3.684,-1.743 -3.684,-3.807 0,-2.04 1.582,-3.782 3.659,-3.782 0.914,0 1.792,0.346 2.484,0.964 l 0,-1.372 c -0.717,-0.42 -1.631,-0.654 -2.447,-0.654 -2.657,0 -4.858,2.113 -4.858,4.807 0,2.756 2.213,4.907 4.957,4.907 0.815,0 1.643,-0.198 2.348,-0.63 L 0,0 z"
             style="fill:#ffffff;fill-opacity:1;fill-rule:nonzero;stroke:#ffffff"
             id="path3185"
             inkscape:connector-curvature="0" /></g><g
           id="g3187"
           transform="translate(171.0083,45.6885)"
           style="fill:#ffffff;stroke:#ffffff"><path
             d="m 0,0 0.371,0 c 1.186,0 2.472,0.222 2.472,1.705 0,1.459 -1.385,1.669 -2.534,1.669 L 0,3.374 0,0 z m 4.635,-4.907 -1.409,0 -2.744,3.942 -0.482,0 0,-3.942 -1.162,0 0,9.319 1.409,0 c 0.828,0 1.718,-0.013 2.46,-0.433 C 3.485,3.522 3.93,2.645 3.93,1.755 3.93,0.42 3.041,-0.692 1.693,-0.854 l 2.942,-4.053 z"
             style="fill:#ffffff;fill-opacity:1;fill-rule:nonzero;stroke:#ffffff"
             id="path3189"
             inkscape:connector-curvature="0" /></g><g
           id="g3191"
           transform="translate(179.8345,50.1006)"
           style="fill:#ffffff;stroke:#ffffff"><path
             d="m 0,0 5.005,0 0,-1.063 -3.843,0 0,-2.608 3.732,0 0,-1.063 -3.732,0 0,-3.523 3.843,0 0,-1.062 L 0,-9.319 0,0 z"
             style="fill:#ffffff;fill-opacity:1;fill-rule:nonzero;stroke:#ffffff"
             id="path3193"
             inkscape:connector-curvature="0" /></g><g
           id="g3195"
           transform="translate(193.0098,47.9502)"
           style="fill:#ffffff;stroke:#ffffff"><path
             d="m 0,0 -1.656,-3.771 3.312,0 L 0,0 z m -2.139,-4.833 -1.062,-2.336 -1.248,0 4.449,9.715 4.449,-9.715 -1.248,0 -1.062,2.336 -4.278,0 z"
             style="fill:#ffffff;fill-opacity:1;fill-rule:nonzero;stroke:#ffffff"
             id="path3197"
             inkscape:connector-curvature="0" /></g><g
           id="g3199"
           transform="translate(203.0371,40.7813)"
           style="fill:#ffffff;stroke:#ffffff"><path
             d="m 0,0 -1.162,0 0,8.256 -2.213,0 0,1.063 5.588,0 0,-1.063 L 0,8.256 0,0 z"
             style="fill:#ffffff;fill-opacity:1;fill-rule:nonzero;stroke:#ffffff"
             id="path3201"
             inkscape:connector-curvature="0" /></g><path
           d="m 210.564,40.781 -1.162,0 0,9.319 1.162,0 0,-9.319 z"
           style="fill:#ffffff;fill-opacity:1;fill-rule:nonzero;stroke:#ffffff"
           id="path3203"
           inkscape:connector-curvature="0" /><g
           id="g3205"
           transform="translate(218.6621,43.2041)"
           style="fill:#ffffff;stroke:#ffffff"><path
             d="m 0,0 2.768,6.896 1.273,0 L 0,-2.917 l -4.055,9.813 1.274,0 L 0,0 z"
             style="fill:#ffffff;fill-opacity:1;fill-rule:nonzero;stroke:#ffffff"
             id="path3207"
             inkscape:connector-curvature="0" /></g><path
           d="m 227.895,40.781 -1.162,0 0,9.319 1.162,0 0,-9.319 z"
           style="fill:#ffffff;fill-opacity:1;fill-rule:nonzero;stroke:#ffffff"
           id="path3209"
           inkscape:connector-curvature="0" /><g
           id="g3211"
           transform="translate(235.4219,40.7813)"
           style="fill:#ffffff;stroke:#ffffff"><path
             d="m 0,0 -1.16,0 0,8.256 -2.213,0 0,1.063 5.586,0 0,-1.063 L 0,8.256 0,0 z"
             style="fill:#ffffff;fill-opacity:1;fill-rule:nonzero;stroke:#ffffff"
             id="path3213"
             inkscape:connector-curvature="0" /></g><g
           id="g3215"
           transform="translate(240.8613,50.1006)"
           style="fill:#ffffff;stroke:#ffffff"><path
             d="M 0,0 1.336,0 3.621,-3.979 5.908,0 7.244,0 4.203,-5.266 l 0,-4.053 -1.162,0 0,4.053 L 0,0 z"
             style="fill:#ffffff;fill-opacity:1;fill-rule:nonzero;stroke:#ffffff"
             id="path3217"
             inkscape:connector-curvature="0" /></g><g
           id="g3219"
           transform="translate(259.4395,49.0371)"
           style="fill:#ffffff;stroke:#ffffff"><path
             d="m 0,0 0,-2.62 3.238,0 0,-1.063 -3.238,0 0,-4.573 -1.16,0 0,9.319 4.51,0 L 3.35,0 0,0 z"
             style="fill:#ffffff;fill-opacity:1;fill-rule:nonzero;stroke:#ffffff"
             id="path3221"
             inkscape:connector-curvature="0" /></g><g
           id="g3223"
           transform="translate(267.4258,50.1006)"
           style="fill:#ffffff;stroke:#ffffff"><path
             d="m 0,0 5.006,0 0,-1.063 -3.844,0 0,-2.608 3.733,0 0,-1.063 -3.733,0 0,-3.523 3.844,0 0,-1.062 L 0,-9.319 0,0 z"
             style="fill:#ffffff;fill-opacity:1;fill-rule:nonzero;stroke:#ffffff"
             id="path3225"
             inkscape:connector-curvature="0" /></g><g
           id="g3227"
           transform="translate(281.2813,48.333)"
           style="fill:#ffffff;stroke:#ffffff"><path
             d="m 0,0 c -0.346,0.581 -0.791,0.878 -1.494,0.878 -0.742,0 -1.559,-0.507 -1.559,-1.323 0,-0.729 0.717,-1.113 1.299,-1.335 l 0.666,-0.259 c 1.324,-0.52 2.313,-1.249 2.313,-2.806 0,-1.693 -1.311,-2.904 -2.979,-2.904 -1.508,0 -2.684,1.112 -2.881,2.607 l 1.174,0.247 c -0.012,-1.025 0.805,-1.767 1.805,-1.767 1.002,0 1.719,0.841 1.719,1.817 0,1.001 -0.803,1.434 -1.608,1.768 l -0.643,0.271 c -1.062,0.457 -2.027,1.063 -2.027,2.361 0,1.508 1.336,2.41 2.744,2.41 1.039,0 1.891,-0.507 2.399,-1.409 L 0,0 z"
             style="fill:#ffffff;fill-opacity:1;fill-rule:nonzero;stroke:#ffffff"
             id="path3229"
             inkscape:connector-curvature="0" /></g><g
           id="g3231"
           transform="translate(289.5625,40.7813)"
           style="fill:#ffffff;stroke:#ffffff"><path
             d="m 0,0 -1.16,0 0,8.256 -2.213,0 0,1.063 5.586,0 0,-1.063 L 0,8.256 0,0 z"
             style="fill:#ffffff;fill-opacity:1;fill-rule:nonzero;stroke:#ffffff"
             id="path3233"
             inkscape:connector-curvature="0" /></g><path
           d="m 297.092,40.781 -1.162,0 0,9.319 1.162,0 0,-9.319 z"
           style="fill:#ffffff;fill-opacity:1;fill-rule:nonzero;stroke:#ffffff"
           id="path3235"
           inkscape:connector-curvature="0" /><g
           id="g3237"
           transform="translate(305.1875,43.2041)"
           style="fill:#ffffff;stroke:#ffffff"><path
             d="m 0,0 2.77,6.896 1.271,0 L 0,-2.917 l -4.055,9.813 1.274,0 L 0,0 z"
             style="fill:#ffffff;fill-opacity:1;fill-rule:nonzero;stroke:#ffffff"
             id="path3239"
             inkscape:connector-curvature="0" /></g><g
           id="g3241"
           transform="translate(315.5234,47.9502)"
           style="fill:#ffffff;stroke:#ffffff"><path
             d="m 0,0 -1.656,-3.771 3.312,0 L 0,0 z m -2.139,-4.833 -1.062,-2.336 -1.248,0 4.449,9.715 4.449,-9.715 -1.248,0 -1.062,2.336 -4.278,0 z"
             style="fill:#ffffff;fill-opacity:1;fill-rule:nonzero;stroke:#ffffff"
             id="path3243"
             inkscape:connector-curvature="0" /></g><g
           id="g3245"
           transform="translate(325.1895,41.8438)"
           style="fill:#ffffff;stroke:#ffffff"><path
             d="m 0,0 2.83,0 0,-1.063 -3.992,0 0,9.32 L 0,8.257 0,0 z"
             style="fill:#ffffff;fill-opacity:1;fill-rule:nonzero;stroke:#ffffff"
             id="path3247"
             inkscape:connector-curvature="0" /></g><g
           id="g3249"
           transform="translate(254.3271,93.6113)"><path
             d="m 0,0 0,-8.521 4.804,0 c 1.911,0 5.577,0.103 5.577,4.235 C 10.381,-0.103 6.766,0 4.752,0 L 0,0 z m -11.568,7.645 18.179,0 c 3.46,0 6.766,-0.207 8.987,-1.137 4.854,-2.066 6.3,-7.024 6.3,-10.535 0,-1.395 -0.155,-4.649 -2.789,-7.334 -1.446,-1.55 -2.995,-2.118 -4.7,-2.789 l 8.884,-14.719 -12.809,0 -7.075,12.859 -3.409,0 0,-12.859 -11.568,0 0,36.514 z"
             style="fill:#f4741c;fill-opacity:1;fill-rule:nonzero;stroke:none"
             id="path3251"
             inkscape:connector-curvature="0" /></g><path
           d="m 281.599,101.204 11.568,0 0,-36.462 -11.568,0 0,36.462 z"
           style="fill:#f4741c;fill-opacity:1;fill-rule:nonzero;stroke:none"
           id="path3253"
           inkscape:connector-curvature="0" /><g
           id="g3255"
           transform="translate(298.127,101.2559)"><path
             d="m 0,0 30.007,0 0,-9.039 -9.245,0 0,-27.475 -11.517,0 0,27.475 L 0,-9.039 0,0 z"
             style="fill:#f4741c;fill-opacity:1;fill-rule:nonzero;stroke:none"
             id="path3257"
             inkscape:connector-curvature="0" /></g><path
           d="m 34.983,65.087 -2.289,0 0,35.955 2.289,0 0,-35.955 z"
           style="fill:#ffffff;fill-opacity:1;fill-rule:nonzero;stroke:#ffffff;stroke-width:0.50000000000000000;stroke-linecap:butt;stroke-linejoin:miter;stroke-miterlimit:4;stroke-opacity:1;stroke-dasharray:none"
           id="path3259"
           inkscape:connector-curvature="0" /><g
           id="g3261"
           transform="translate(75.0225,94.8428)"
           style="fill:#ffffff;stroke:#ffffff"><path
             d="M 0,0 -0.095,0 -12.636,-30.948 -25.13,0 l -0.095,0 -6.151,-29.756 -2.194,0 7.725,37.147 13.209,-32.712 13.256,32.712 7.725,-37.147 -2.194,0 L 0,0 z"
             style="fill:#ffffff;fill-opacity:1;fill-rule:nonzero;stroke:#ffffff"
             id="path3263"
             inkscape:connector-curvature="0" /></g><g
           id="g3265"
           transform="translate(75.0225,94.8428)"
           style="fill:#ffffff;stroke:#ffffff"><path
             d="M 0,0 -0.095,0 -12.636,-30.948 -25.13,0 l -0.095,0 -6.151,-29.756 -2.194,0 7.725,37.147 13.209,-32.712 13.256,32.712 7.725,-37.147 -2.194,0 L 0,0 z"
             style="fill:#ffffff;stroke:#ffffff;stroke-width:0.50000000000000000;stroke-linecap:butt;stroke-linejoin:miter;stroke-miterlimit:4;stroke-opacity:1;stroke-dasharray:none"
             id="path3267"
             inkscape:connector-curvature="0" /></g><g
           id="g3269"
           transform="translate(103.6128,96.416)"
           style="fill:#ffffff;stroke:#ffffff"><path
             d="m 0,0 -7.057,-17.356 14.067,0 L 0,0 z m -7.916,-19.503 -4.816,-11.826 -2.337,0 L 0,5.817 l 15.021,-37.146 -2.336,0 -4.817,11.826 -15.784,0 z"
             style="fill:#ffffff;fill-opacity:1;fill-rule:nonzero;stroke:#ffffff"
             id="path3271"
             inkscape:connector-curvature="0" /></g><g
           id="g3273"
           transform="translate(103.6128,96.416)"
           style="fill:#ffffff;stroke:#ffffff"><path
             d="m 0,0 -7.057,-17.356 14.067,0 L 0,0 z m -7.916,-19.503 -4.816,-11.826 -2.337,0 L 0,5.817 l 15.021,-37.146 -2.336,0 -4.817,11.826 -15.784,0 z"
             style="fill:#ffffff;stroke:#ffffff;stroke-width:0.50000000000000000;stroke-linecap:butt;stroke-linejoin:miter;stroke-miterlimit:4;stroke-opacity:1;stroke-dasharray:none"
             id="path3275"
             inkscape:connector-curvature="0" /></g><g
           id="g3277"
           transform="translate(155.8262,82.3975)"
           style="fill:#ffffff;stroke:#ffffff"><path
             d="m 0,0 c 0.095,-4.531 -0.573,-8.488 -3.768,-11.969 -3.433,-3.72 -8.583,-5.818 -13.637,-5.818 -9.967,0 -18.454,8.392 -18.454,18.31 0,10.301 8.44,18.598 18.74,18.598 6.533,0 11.826,-3.243 15.593,-8.392 L -3.386,9.25 c -3.195,4.769 -8.059,7.725 -13.876,7.725 -8.775,0 -16.308,-7.677 -16.308,-16.308 0,-8.87 7.343,-16.309 16.308,-16.309 3.863,0 7.629,1.574 10.586,3.958 3.099,2.622 4.244,5.627 4.387,9.538 l -12.875,0 0,2.146 L 0,0 z"
             style="fill:#ffffff;fill-opacity:1;fill-rule:nonzero;stroke:#ffffff"
             id="path3279"
             inkscape:connector-curvature="0" /></g><g
           id="g3281"
           transform="translate(155.8262,82.3975)"
           style="fill:#ffffff;stroke:#ffffff"><path
             d="m 0,0 c 0.095,-4.531 -0.573,-8.488 -3.768,-11.969 -3.433,-3.72 -8.583,-5.818 -13.637,-5.818 -9.967,0 -18.454,8.392 -18.454,18.31 0,10.301 8.44,18.598 18.74,18.598 6.533,0 11.826,-3.243 15.593,-8.392 L -3.386,9.25 c -3.195,4.769 -8.059,7.725 -13.876,7.725 -8.775,0 -16.308,-7.677 -16.308,-16.308 0,-8.87 7.343,-16.309 16.308,-16.309 3.863,0 7.629,1.574 10.586,3.958 3.099,2.622 4.244,5.627 4.387,9.538 l -12.875,0 0,2.146 L 0,0 z"
             style="fill:#ffffff;stroke:#ffffff;stroke-width:0.50000000000000000;stroke-linecap:butt;stroke-linejoin:miter;stroke-miterlimit:4;stroke-opacity:1;stroke-dasharray:none"
             id="path3283"
             inkscape:connector-curvature="0" /></g><path
           d="m 166.142,65.087 -2.289,0 0,35.955 2.289,0 0,-35.955 z"
           style="fill:#ffffff;fill-opacity:1;fill-rule:nonzero;stroke:#ffffff;stroke-width:0.50000000000000000;stroke-linecap:butt;stroke-linejoin:miter;stroke-miterlimit:4;stroke-opacity:1;stroke-dasharray:none"
           id="path3285"
           inkscape:connector-curvature="0" /><g
           id="g3287"
           transform="translate(207.082,63.8945)"
           style="fill:#ffffff;stroke:#ffffff"><path
             d="m 0,0 -30.186,32.093 0,-30.901 -2.288,0 0,36.432 30.184,-31.853 0,31.376 2.29,0 L 0,0 z"
             style="fill:#ffffff;fill-opacity:1;fill-rule:nonzero;stroke:#ffffff"
             id="path3289"
             inkscape:connector-curvature="0" /></g><g
           id="g3291"
           transform="translate(207.082,63.8945)"
           style="fill:#ffffff;stroke:#ffffff"><path
             d="m 0,0 -30.186,32.093 0,-30.901 -2.288,0 0,36.432 30.184,-31.853 0,31.376 2.29,0 L 0,0 z"
             style="fill:#ffffff;stroke:#ffffff;stroke-width:0.50000000000000000;stroke-linecap:butt;stroke-linejoin:miter;stroke-miterlimit:4;stroke-opacity:1;stroke-dasharray:none"
             id="path3293"
             inkscape:connector-curvature="0" /></g><g
           id="g3295"
           transform="translate(216.707,98.8955)"
           style="fill:#ffffff;stroke:#ffffff"><path
             d="m 0,0 0,-13.064 14.496,0 0,-2.147 -14.496,0 0,-16.452 14.879,0 0,-2.146 -17.168,0 0,35.955 17.168,0 L 14.879,0 0,0 z"
             style="fill:#ffffff;fill-opacity:1;fill-rule:nonzero;stroke:#ffffff"
             id="path3297"
             inkscape:connector-curvature="0" /></g><g
           id="g3299"
           transform="translate(216.707,98.8955)"
           style="fill:#ffffff;stroke:#ffffff"><path
             d="m 0,0 0,-13.064 14.496,0 0,-2.147 -14.496,0 0,-16.452 14.879,0 0,-2.146 -17.168,0 0,35.955 17.168,0 L 14.879,0 0,0 z"
             style="fill:#ffffff;stroke:#ffffff;stroke-width:0.50000000000000000;stroke-linecap:butt;stroke-linejoin:miter;stroke-miterlimit:4;stroke-opacity:1;stroke-dasharray:none"
             id="path3301"
             inkscape:connector-curvature="0" /></g></g></g></g></svg>